<svg id="walking-character-css-only" xmlns="http://www.w3.org/2000/svg" xmlns:xlink="http://www.w3.org/1999/xlink" viewBox="0 0 700 700" shape-rendering="geometricPrecision" text-rendering="geometricPrecision"><style><![CDATA[#walking-character-css-only-u-upperarm_tr {animation: walking-character-css-only-u-upperarm_tr__tr 2000ms linear infinite normal forwards}@keyframes walking-character-css-only-u-upperarm_tr__tr { 0% {transform: translate(237.723481px,136.387225px) rotate(7.39148deg)} 25% {transform: translate(237.723481px,136.387225px) rotate(-8.665006deg)} 50% {transform: translate(237.723481px,136.387225px) rotate(-26.717703deg)} 75% {transform: translate(237.723481px,136.387225px) rotate(-8.665006deg)} 100% {transform: translate(237.723481px,136.387225px) rotate(7.39148deg)}} #walking-character-css-only-u-lowerarm_to {animation: walking-character-css-only-u-lowerarm_to__to 2000ms linear infinite normal forwards}@keyframes walking-character-css-only-u-lowerarm_to__to { 0% {transform: translate(194.954543px,253.869229px)} 25% {transform: translate(226.083283px,259.538017px)} 50% {transform: translate(270.790583px,260.107608px)} 75% {transform: translate(226.083283px,259.538017px)} 100% {transform: translate(194.954543px,253.869229px)}} #walking-character-css-only-u-lowerarm_tr {animation: walking-character-css-only-u-lowerarm_tr__tr 2000ms linear infinite normal forwards}@keyframes walking-character-css-only-u-lowerarm_tr__tr { 0% {transform: rotate(45.375091deg)} 25% {transform: rotate(14.655642deg)} 50% {transform: rotate(-13.273575deg)} 75% {transform: rotate(14.655642deg)} 100% {transform: rotate(45.375091deg)}} #walking-character-css-only-u-thigh_tr {animation: walking-character-css-only-u-thigh_tr__tr 2000ms linear infinite normal forwards}@keyframes walking-character-css-only-u-thigh_tr__tr { 0% {transform: translate(356.912644px,189.992929px) rotate(12.570338deg)} 25% {transform: translate(356.912644px,189.992929px) rotate(1.600633deg)} 50% {transform: translate(356.912644px,189.992929px) rotate(-19.732033deg)} 75% {transform: translate(356.912644px,189.992929px) rotate(1.600633deg)} 100% {transform: translate(356.912644px,189.992929px) rotate(12.570338deg)}} #walking-character-css-only-u-shin_to {animation: walking-character-css-only-u-shin_to__to 2000ms linear infinite normal forwards}@keyframes walking-character-css-only-u-shin_to__to { 0% {transform: translate(339.670734px,259.066918px)} 25% {transform: translate(352.48361px,259.066907px)} 50% {transform: translate(379.790176px,258.896671px)} 75% {transform: translate(352.48361px,259.066907px)} 100% {transform: translate(339.670734px,259.066918px)}} #walking-character-css-only-u-shin_tr {animation: walking-character-css-only-u-shin_tr__tr 2000ms linear infinite normal forwards}@keyframes walking-character-css-only-u-shin_tr__tr { 0% {transform: rotate(54.282991deg)} 25% {transform: rotate(9.161526deg)} 50% {transform: rotate(3.352814deg)} 75% {transform: rotate(9.161526deg)} 100% {transform: rotate(54.282991deg)}} #walking-character-css-only-u-foot_to {animation: walking-character-css-only-u-foot_to__to 2000ms linear infinite normal forwards}@keyframes walking-character-css-only-u-foot_to__to { 0% {transform: translate(300.834335px,288.704988px)} 25% {transform: translate(344.456015px,305.504914px)} 50% {transform: translate(378.539171px,308.041098px)} 75% {transform: translate(344.456015px,305.504914px)} 100% {transform: translate(300.834335px,288.704988px)}} #walking-character-css-only-u-foot_tr {animation: walking-character-css-only-u-foot_tr__tr 2000ms linear infinite normal forwards}@keyframes walking-character-css-only-u-foot_tr__tr { 0% {transform: rotate(52.606119deg)} 25% {transform: rotate(8.977754deg)} 50% {transform: rotate(1.358568deg)} 75% {transform: rotate(8.977754deg)} 100% {transform: rotate(52.606119deg)}} #walking-character-css-only-u-thigh2_tr {animation: walking-character-css-only-u-thigh2_tr__tr 2000ms linear infinite normal forwards}@keyframes walking-character-css-only-u-thigh2_tr__tr { 0% {transform: translate(356.912644px,189.992929px) rotate(-27.636433deg)} 25% {transform: translate(356.912644px,189.992929px) rotate(-7.144038deg)} 50% {transform: translate(356.912644px,189.992929px) rotate(1.995786deg)} 75% {transform: translate(356.912644px,189.992929px) rotate(-7.144038deg)} 100% {transform: translate(356.912644px,189.992929px) rotate(-27.636433deg)}} #walking-character-css-only-u-shin2_to {animation: walking-character-css-only-u-shin2_to__to 2000ms linear infinite normal forwards}@keyframes walking-character-css-only-u-shin2_to__to { 0% {transform: translate(389.975297px,255.253809px)} 25% {transform: translate(365.217063px,260.974016px)} 50% {transform: translate(353.743095px,261.00094px)} 75% {transform: translate(365.217063px,260.974016px)} 100% {transform: translate(389.975297px,255.253809px)}} #walking-character-css-only-u-shin2_tr {animation: walking-character-css-only-u-shin2_tr__tr 2000ms linear infinite normal forwards}@keyframes walking-character-css-only-u-shin2_tr__tr { 0% {transform: rotate(-9.348067deg)} 25% {transform: rotate(4.222851deg)} 50% {transform: rotate(24.426678deg)} 75% {transform: rotate(4.222851deg)} 100% {transform: rotate(-9.348067deg)}} #walking-character-css-only-u-foot2_to {animation: walking-character-css-only-u-foot2_to__to 2000ms linear infinite normal forwards}@keyframes walking-character-css-only-u-foot2_to__to { 0% {transform: translate(399.42406px,303.636291px)} 25% {transform: translate(362.860252px,311.282669px)} 50% {transform: translate(334.877602px,303.597714px)} 75% {transform: translate(362.860252px,311.282669px)} 100% {transform: translate(399.42406px,303.636291px)}} #walking-character-css-only-u-foot2_tr {animation: walking-character-css-only-u-foot2_tr__tr 2000ms linear infinite normal forwards}@keyframes walking-character-css-only-u-foot2_tr__tr { 0% {transform: rotate(-24.518983deg)} 25% {transform: rotate(-1.197648deg)} 50% {transform: rotate(25.939345deg)} 75% {transform: rotate(-1.197648deg)} 100% {transform: rotate(-24.518983deg)}} #walking-character-css-only-u-upperarm2_tr {animation: walking-character-css-only-u-upperarm2_tr__tr 2000ms linear infinite normal forwards}@keyframes walking-character-css-only-u-upperarm2_tr__tr { 0% {transform: translate(237.723481px,136.387225px) rotate(19.438016deg)} 25% {transform: translate(237.723481px,136.387225px) rotate(-6.804047deg)} 50% {transform: translate(237.723481px,136.387225px) rotate(-23.713574deg)} 75% {transform: translate(237.723481px,136.387225px) rotate(-6.804047deg)} 100% {transform: translate(237.723481px,136.387225px) rotate(19.438016deg)}} #walking-character-css-only-u-lowerarm2_to {animation: walking-character-css-only-u-lowerarm2_to__to 2000ms linear infinite normal forwards}@keyframes walking-character-css-only-u-lowerarm2_to__to { 0% {transform: translate(172.689865px,247.308097px)} 25% {transform: translate(226.282318px,263.655382px)} 50% {transform: translate(264.708962px,258.456693px)} 75% {transform: translate(226.282318px,263.655382px)} 100% {transform: translate(172.689865px,247.308097px)}} #walking-character-css-only-u-lowerarm2_tr {animation: walking-character-css-only-u-lowerarm2_tr__tr 2000ms linear infinite normal forwards}@keyframes walking-character-css-only-u-lowerarm2_tr__tr { 0% {transform: rotate(0.785433deg)} 25% {transform: rotate(-24.387936deg)} 50% {transform: rotate(-52.434136deg)} 75% {transform: rotate(-24.387936deg)} 100% {transform: rotate(0.785433deg)}}]]></style><g id="walking-character-css-only-u-character" transform="matrix(1.3 0 0 1.3-153.979404 64.722791)"><g id="walking-character-css-only-u-rightarm" transform="matrix(-.569803 0 0 0.659611 458.91615-22.376758)"><g id="walking-character-css-only-u-upperarm_tr" transform="translate(237.723481,136.387225) rotate(7.39148)"><g id="walking-character-css-only-u-upperarm" transform="translate(-237.723481,-136.387225)"><path id="walking-character-css-only-s-path1" d="M216.40276,143.21528c3.35271-8.6623,4.80707-10.451681,10.28992-14.24759c37.59849-26.030337,19.833638,70.815317,4.997047,66.4887-4.667512-1.361131-10.544777-3.143725-15.286967-3.574825-2.8156-.25596-9.65569.409435-11.87299-1.174355-1.09475-.78197-.79153-2.61232-.79153-3.95766c0-10.96701,8.4657-33.03723,12.66452-43.53427" transform="translate(0 0.000001)" fill="#2f3463" stroke="#000" stroke-width="1.28"/><path id="walking-character-css-only-s-path2" d="M205.07673,192.16847c-3.868419,5.024138-11.660021,58.883663-4.79868,64.7822c3.954949,3.399978,17.31134,2.68725,22.1939,1.79951c8.2161-1.49384,10.521819-55.413091,8.063089-62.789301-1.26894-3.8068-23.719279-6.111119-25.458309-3.792409" fill="#cda676" stroke="#000" stroke-width="1.28"/></g></g><g id="walking-character-css-only-u-lowerarm_to" transform="translate(194.954543,253.869229)"><g id="walking-character-css-only-u-lowerarm_tr" transform="rotate(45.375091)"><path id="walking-character-css-only-u-lowerarm" d="M200.2703,258.179c0,18.68006,2.78285,38.350983,1.08206,57.059773-.80744,8.88183-3.30677,20.967427,0,29.234357c3.31118,8.27795,8.18044,17.60212,17.31293,16.7719c11.54273-1.04934,1.29467-23.879207,2.43463-25.019157c1.62349-1.62349,6.83614,12.772727,11.36161,8.247257c4.15798-4.15798-9.090101-19.385723-9.989581-24.332883-2.29144-12.60295-4.296962-26.322438-3.221312-39.230238.48782-5.85388,3.110933-15.222517,1.849283-20.899947-.45574-2.05084-19.518211-2.808802-20.821871-1.831062" transform="scale(-1,1) translate(-209.613133,-265.819682)" fill="#cda676" stroke="#000" stroke-width="1.28"/></g></g></g><g id="walking-character-css-only-u-rightleg" transform="matrix(1.134208 0 0 1.130983-84.83025-32.899315)"><g id="walking-character-css-only-u-thigh_tr" transform="translate(356.912644,189.992929) rotate(12.570338)"><path id="walking-character-css-only-u-thigh" d="M347.47891,193.5065c1.229916-4.394838,13.785194-10.977528,16.89153-6.56892c4.698751,6.668613,6.497548,81.179575-9.057835,75.840208-13.36693-4.588183-9.992575-58.476888-7.833695-69.271288" transform="translate(-356.912644,-189.992896)" fill="#121560" stroke="#3f5787" stroke-width="1.28"/></g><g id="walking-character-css-only-u-shin_to" transform="translate(339.670734,259.066918)"><g id="walking-character-css-only-u-shin_tr" transform="rotate(54.282991)"><path id="walking-character-css-only-u-shin" d="M349.80439,263.7923c.838431-4.211876,10.117834-8.508677,12.89398-2.41762c2.959078,6.492421,3.086344,50.324823-4.29799,51.57592-4.812211.815313-5.591177-8.809321-6.17837-12.08811-2.358678-13.170467-3.868005-23.78977-2.41762-37.07019" transform="translate(-356.912522,-262.863984)" fill="#121560" stroke="#3f5787" stroke-width="1.28"/></g></g><g id="walking-character-css-only-u-foot_to" transform="translate(300.834335,288.704988)"><g id="walking-character-css-only-u-foot_tr" transform="rotate(52.606119)"><path id="walking-character-css-only-u-foot" d="M355.22351,308.5398c-4.9125.81875-11.604978,12.162601-6.29432,15.39687c5.662559,3.448582,25.214229,1.258886,31.503354,1.102544c3.734976-.092848,5.73102-2.549954,5.415725-5.36541-.369778-3.301971-8.237779-4.170728-10.414856-5.519874-5.546314-3.43708-14.27351-6.609387-20.209903-5.61413" transform="translate(-357.934543,-310.666541)" fill="#686363" stroke="#3f5787" stroke-width="1.28"/></g></g></g><g id="walking-character-css-only-u-torso" transform="matrix(.702888 0 0 1.096784 0.751664-85.324795)"><path id="walking-character-css-only-u-torso2" d="M449.59676,122.86613c0,7.25429-5.20285,16.1241-13.90434,14.3838-6.22877-1.24575.172567-12.846763-4.493455-13.620672-2.459463-.407928-31.546632,5.904666-35.781185,9.305532-3.974128,3.191713-4.34078,9.63535-6.71244,13.90434-8.02145,14.43861-4.81019,62.354227-2.87676,81.688507.60848,6.08485,6.1849,15.03087,9.5892,20.13732c3.34157,5.01236,59.756157,6.49548,67.603857,3.3564c5.63301-2.2532,8.221303-7.710282,10.548113-12.945612c8.47306-19.06438-.00334-21.789385-1.91784-40.934395-2.85269-28.52691,18.681534-67.03132-22.537986-75.27522" fill="#2f3463" stroke="#000" stroke-width="1.28"/><path id="walking-character-css-only-u-lowertorso" d="M385.71418,229.95145c22.71969,0,44.68128.57716,67.51525,1.80041c9.28409.49736,22.765233.627684,21.82993,4.27597-4.491863,17.52117-18.302131,18.346529-30.15681,17.55397-15.2024-1.162288-36.455368,1.053326-48.311305-4.247659-4.879355-2.18164-7.298983-10.327579-10.426965-18.482471" fill="#121560" stroke="#000" stroke-width="1.28"/></g><path id="walking-character-css-only-u-neck" d="M109.00586,107.96637c-2.841942,5.220153-8.039607,20.720963,4.964457,20.547488c10.17961-.135797,16.918008-15.464919,11.342323-20.997328-2.02206-2.006366-15.47995-1.27984-16.5317,1.34953" transform="matrix(.588165 0 0 1.075029 241.707406-72.424464)" fill="#cda676" stroke="#000" stroke-width="1.28"/><g id="walking-character-css-only-u-head" transform="matrix(.839252 0 0 0.835958-125.483461-154.733983)"><path id="walking-character-css-only-u-head2" d="M560.761901,148.12607c-.988022-.041054,3.663456.527057,4.433639,4.22554.631089,3.030541,3.23584,39.858869,0,51.31009-10.31778,61.90668-124.80364,37.02294-71.23048-34.40794c7.62525-10.167,15.93527-12.41059,27.16416-16.90215c13.2345-5.2938,25.368841-4.22554,39.632681-4.22554" transform="translate(.422329 0.000001)" fill="#cda676" stroke="#000" stroke-width="1.28"/><path id="walking-character-css-only-u-hair" d="M483.03875,218.81182c0-4.19402-1.25726-10.74895.63159-14.52665c1.82747-3.65494,6.688186-3.114735,8.21072-5.05275c3.280205-4.175332-9.312114-15.559987,0-20.067059c4.401756-2.130454,6.555088,4.992876,8.932503,5.258791c1.949267.218026.086261-9.820688-.405993-11.087072-1.718123-4.420083,1.41036-8.74819,6.00014-10.73709c18.46661-8.0022,47.09131-4.12791,61.26457-12.63187c4.86001-2.91601,15.8146-15.33938,12.94767-21.78998-.48851-1.09914-12.58142,10.85917-17.68462,9.15811-4.32361-1.4412,5.28837-8.07032,3.15797-11.05289-1.09464-1.5325-2.02891-.31674-2.84217.3158-6.04511,4.70175-10.490144,5.50025-18.647034,6.31594-8.55513.85551-14.540799.883664-22.722346,0-25.99061-2.807167-36.706638,9.324576-47.810424,27.583025-7.637034,12.557915-8.348074,23.323408-5.201252,38.734295c1.242561,6.085177,16.655092,27.65543,14.168676,15.47404" transform="translate(0 0.000001)" stroke="#3f5787" stroke-width="1.28"/><ellipse id="walking-character-css-only-u-lefteye" rx="6.929164" ry="6.311875" transform="translate(524.262028 187.146141)" fill="#f8f8f8" stroke-width="0"/><ellipse id="walking-character-css-only-u-righteye" rx="6.929164" ry="6.311875" transform="translate(551.64498 185.634626)" fill="#fff"/><ellipse id="walking-character-css-only-u-leftpupil" rx="0.829504" ry="0.794941" transform="translate(524.149853 187.146141)" fill="#050505" stroke-width="0"/><ellipse id="walking-character-css-only-u-rightpupil" rx="0.829504" ry="0.794941" transform="translate(551.64498 185.634625)" fill="#070707" stroke-width="0"/><path id="walking-character-css-only-u-righteyebrow" d="M515.41316,180.34499c3.12183-3.12183,9.78254-4.94989,13.77016-2.55732" fill="none" stroke="#050505" stroke-width="1.28"/><path id="walking-character-css-only-u-righteyebrow2" d="M543.34691,177.39424c4.2472-2.54832,9.41386-3.67605,13.57344-1.1803" fill="none" stroke="#050505" stroke-width="1.28"/><path id="walking-character-css-only-u-mouth" d="M514.03614,212.21306c6.19465,1.23893,16.17915.84438,22.42569-.19671c1.04229-.17372,7.47855-2.79138,7.86866-2.55732c2.11248,1.26749-4.13106,7.55392-4.91791,8.2621-4.25216,3.82695-13.78029,6.471-19.47494,4.91791-3.65046-.99558-10.97755-11.44119-5.9015-10.42598" fill="#5e5d5d" stroke="#3f5787" stroke-width="1.28"/></g><g id="walking-character-css-only-u-leftleg" transform="matrix(1.199471 0 0 1.130983-141.814745-37.819228)"><g id="walking-character-css-only-u-thigh2_tr" transform="translate(356.912644,189.992929) rotate(-27.636433)"><path id="walking-character-css-only-u-thigh2" d="M347.47891,193.5065c1.229916-4.394838,13.785194-10.977528,16.89153-6.56892c4.698751,6.668613,6.497548,81.179575-9.057835,75.840208-13.36693-4.588183-9.992575-58.476888-7.833695-69.271288" transform="translate(-356.912644,-189.992896)" fill="#121560" stroke="#3f5787" stroke-width="1.28"/></g><g id="walking-character-css-only-u-shin2_to" transform="translate(389.975297,255.253809)"><g id="walking-character-css-only-u-shin2_tr" transform="rotate(-9.348067)"><path id="walking-character-css-only-u-shin2" d="M349.80439,263.7923c.838431-4.211876,10.117834-8.508677,12.89398-2.41762c2.959078,6.492421,3.086344,50.324823-4.29799,51.57592-4.812211.815313-5.591177-8.809321-6.17837-12.08811-2.358678-13.170467-3.868005-23.78977-2.41762-37.07019" transform="translate(-356.912522,-262.863984)" fill="#121560" stroke="#3f5787" stroke-width="1.28"/></g></g><g id="walking-character-css-only-u-foot2_to" transform="translate(399.42406,303.636291)"><g id="walking-character-css-only-u-foot2_tr" transform="rotate(-24.518983)"><path id="walking-character-css-only-u-foot2" d="M355.22351,308.5398c-4.9125.81875-11.604978,12.162601-6.29432,15.39687c5.662559,3.448582,25.214229,1.258886,31.503354,1.102544c3.734976-.092848,5.73102-2.549954,5.415725-5.36541-.369778-3.301971-8.237779-4.170728-10.414856-5.519874-5.546314-3.43708-14.27351-6.609387-20.209903-5.61413" transform="translate(-357.934543,-310.666541)" fill="#686363" stroke="#3f5787" stroke-width="1.28"/></g></g></g><g id="walking-character-css-only-u-leftarm" transform="matrix(.543021 0 0 0.65988 152.033369-22.439374)"><g id="walking-character-css-only-u-upperarm2_tr" transform="translate(237.723481,136.387225) rotate(19.438016)"><g id="walking-character-css-only-u-upperarm2" transform="translate(-237.723481,-136.387225)"><path id="walking-character-css-only-s-path3" d="M216.40276,143.21528c3.35271-8.6623,4.80707-10.451681,10.28992-14.24759c37.59849-26.030337,19.833638,70.815317,4.997047,66.4887-4.667512-1.361131-10.544777-3.143725-15.286967-3.574825-2.8156-.25596-9.65569.409435-11.87299-1.174355-1.09475-.78197-.79153-2.61232-.79153-3.95766c0-10.96701,8.4657-33.03723,12.66452-43.53427" transform="translate(0 0.000001)" fill="#2f3463" stroke="#000" stroke-width="1.28"/><path id="walking-character-css-only-s-path4" d="M205.07673,192.16847c-3.868419,5.024138-11.660021,58.883663-4.79868,64.7822c3.954949,3.399978,17.31134,2.68725,22.1939,1.79951c8.2161-1.49384,10.521819-55.413091,8.063089-62.789301-1.26894-3.8068-23.719279-6.111119-25.458309-3.792409" fill="#cda676" stroke="#000" stroke-width="1.28"/></g></g><g id="walking-character-css-only-u-lowerarm2_to" transform="translate(172.689865,247.308097)"><g id="walking-character-css-only-u-lowerarm2_tr" transform="rotate(0.785433)"><path id="walking-character-css-only-u-lowerarm2" d="M200.2703,258.179c0,18.68006,2.78285,38.350983,1.08206,57.059773-.80744,8.88183-3.30677,20.967427,0,29.234357c3.31118,8.27795,8.18044,17.60212,17.31293,16.7719c11.54273-1.04934,1.29467-23.879207,2.43463-25.019157c1.62349-1.62349,6.83614,12.772727,11.36161,8.247257c4.15798-4.15798-9.090101-19.385723-9.989581-24.332883-2.29144-12.60295-4.296962-26.322438-3.221312-39.230238.48782-5.85388,3.110933-15.222517,1.849283-20.899947-.45574-2.05084-19.518211-2.808802-20.821871-1.831062" transform="translate(-209.613133,-265.819682)" fill="#cda676" stroke="#000" stroke-width="1.28"/></g></g></g></g></svg>